
nColumns=19
nRows=43
DataType=double
version=3
OpenSimVersion=4.4-2022-10-11-798caa840
endheader
time	ground_force_calcn_r_vx	ground_force_calcn_r_vy	ground_force_calcn_r_vz	ground_force_calcn_r_px	ground_force_calcn_r_py	ground_force_calcn_r_pz	ground_force_calcn_r_mx	ground_force_calcn_r_my	ground_force_calcn_r_mz	ground_force_calcn_l_vx	ground_force_calcn_l_vy	ground_force_calcn_l_vz	ground_force_calcn_l_px	ground_force_calcn_l_py	ground_force_calcn_l_pz	ground_force_calcn_l_mx	ground_force_calcn_l_my	ground_force_calcn_l_mz
0	-3.96789	285.971	-33.3746	-0.204266	0	-0.37626	0.0203613	-1.46747	0.171262	2.67725	314.655	37.2436	-0.20602	0	-0.763594	0.00751841	0.883632	0.10459
0.01	-4.19017	285.228	-33.2148	-0.203741	0	-0.37624	0.0218263	-1.48573	0.173013	2.59235	315.338	37.398	-0.205909	0	-0.763827	0.006944	0.844679	0.100176
0.02	-4.44072	284.376	-33.0297	-0.203151	0	-0.376231	0.0235204	-1.50621	0.174943	2.50654	316.126	37.5849	-0.2058	0	-0.764064	0.00640138	0.807344	0.0959869
0.03	-4.71288	283.425	-32.8202	-0.202508	0	-0.376238	0.02542	-1.52872	0.177023	2.42313	317.01	37.8034	-0.205698	0	-0.764298	0.00590724	0.772825	0.09215909999999999
0.04	-4.99705	282.386	-32.588	-0.201827	0	-0.376257	0.0274827	-1.55306	0.179227	2.34482	317.98	38.0512	-0.205606	0	-0.764525	0.00547003	0.741789	0.0887665
0.05	-5.28165	281.276	-32.3359	-0.201127	0	-0.376293	0.0296497	-1.579	0.181525	2.27337	319.023	38.3249	-0.205528	0	-0.76474	0.00509126	0.714459	0.0858294
0.06	-5.55457	280.116	-32.0687	-0.200426	0	-0.376343	0.0318507	-1.60622	0.183886	2.20973	320.124	38.6198	-0.205465	0	-0.764943	0.0047676	0.690684	0.0833241
0.07000000000000001	-5.80457	278.925	-31.7919	-0.199747	0	-0.376405	0.0340117	-1.63436	0.186284	2.15412	321.271	38.9311	-0.205419	0	-0.765132	0.00449266	0.6700469999999999	0.08119510000000001
0.08	-6.02191	277.723	-31.5115	-0.199105	0	-0.376475	0.0360604	-1.66306	0.188697	2.10616	322.451	39.2536	-0.205389	0	-0.765311	0.00425895	0.65204	0.0793763
0.09	-6.19873	276.523	-31.2323	-0.198517	0	-0.376552	0.0379299	-1.69204	0.19111	2.06483	323.654	39.5832	-0.205378	0	-0.765481	0.00405788	0.636057	0.0777905
0.1	-6.33006	275.336	-30.9578	-0.197994	0	-0.376633	0.0395666	-1.72101	0.193504	2.0289	324.872	39.9165	-0.205383	0	-0.765645	0.00388161	0.6215309999999999	0.0763665
0.11	-6.4142	274.167	-30.6895	-0.197545	0	-0.376714	0.0409342	-1.74968	0.195855	1.99716	326.094	40.2512	-0.205404	0	-0.765804	0.00372369	0.607999	0.075048
0.12	-6.45244	273.024	-30.4277	-0.197177	0	-0.376794	0.0420154	-1.77781	0.198131	1.96864	327.307	40.5864	-0.205441	0	-0.76596	0.0035796	0.595145	0.07379860000000001
0.13	-6.44872	271.912	-30.1716	-0.196891	0	-0.376875	0.0428121	-1.80518	0.200305	1.9432	328.496	40.9213	-0.205492	0	-0.766114	0.00344778	0.582843	0.0726058
0.14	-6.40891	270.843	-29.9205	-0.196691	0	-0.376953	0.0433434	-1.83171	0.202352	1.92153	329.638	41.2544	-0.205556	0	-0.766266	0.00332916	0.571115	0.0714756
0.15	-6.34081	269.836	-29.6741	-0.196574	0	-0.377032	0.0436437	-1.85728	0.204247	1.9047	330.703	41.5829	-0.205634	0	-0.766415	0.0032259	0.560098	0.07042710000000001
0.16	-6.25325	268.919	-29.4336	-0.196535	0	-0.377112	0.0437572	-1.88176	0.205962	1.89388	331.659	41.9017	-0.205724	0	-0.766557	0.00314076	0.550013	0.0694886
0.17	-6.15532	268.126	-29.2026	-0.196568	0	-0.37719	0.0437317	-1.90496	0.207476	1.89027	332.464	42.2043	-0.205827	0	-0.766688	0.00307608	0.541027	0.0686802
0.18	-6.05548	267.497	-28.9868	-0.196666	0	-0.377269	0.0436119	-1.92653	0.208764	1.8947	333.076	42.4822	-0.20594	0	-0.766806	0.00303351	0.533269	0.0680159
0.19	-5.96113	267.075	-28.7935	-0.196817	0	-0.377344	0.0434363	-1.94606	0.209806	1.90764	333.447	42.7266	-0.206064	0	-0.766907	0.00301421	0.526871	0.0675111
0.2	-5.8777	266.901	-28.6318	-0.197011	0	-0.37741	0.0432329	-1.96316	0.210599	1.9289	333.53	42.9282	-0.206192	0	-0.7669859999999999	0.00301829	0.5219	0.0671731
0.21	-5.80797	267.012	-28.5118	-0.197236	0	-0.377465	0.0430147	-1.97753	0.211163	1.95756	333.276	43.0778	-0.206321	0	-0.7670400000000001	0.00304505	0.518421	0.0670089
0.22	-5.75198	267.439	-28.4428	-0.197484	0	-0.377505	0.0427766	-1.9889	0.211525	1.99189	332.641	43.1663	-0.206448	0	-0.767066	0.00309365	0.516632	0.0670424
0.23	-5.70685	268.205	-28.4333	-0.197748	0	-0.377523	0.0424956	-1.99716	0.211726	2.02978	331.593	43.1855	-0.206568	0	-0.7670630000000001	0.00316301	0.516721	0.06729599999999999
0.24	-5.66693	269.324	-28.4898	-0.198022	0	-0.377519	0.0421316	-2.00233	0.211812	2.06928	330.108	43.1291	-0.206676	0	-0.767029	0.00325251	0.518867	0.06779060000000001
0.25	-5.62405	270.802	-28.6173	-0.198309	0	-0.377487	0.0416288	-2.00445	0.211823	2.1091	328.179	42.993	-0.20677	0	-0.766966	0.00336261	0.523227	0.0685452
0.26	-5.56826	272.638	-28.8192	-0.198607	0	-0.377427	0.0409212	-2.00362	0.211792	2.14898	325.812	42.7761	-0.206852	0	-0.766872	0.00349566	0.529985	0.069582
0.27	-5.48883	274.826	-29.0972	-0.198927	0	-0.377336	0.0399421	-1.9999	0.21174	2.18974	323.029	42.4798	-0.20692	0	-0.76675	0.00365642	0.539394	0.07093289999999999
0.28	-5.37514	277.353	-29.4515	-0.199275	0	-0.377218	0.0386326	-1.99341	0.211676	2.23301	319.862	42.1087	-0.206979	0	-0.7665999999999999	0.0038524	0.551828	0.0726463
0.29	-5.21793	280.202	-29.8813	-0.199659	0	-0.377071	0.0369494	-1.98417	0.211596	2.28116	316.357	41.6696	-0.207031	0	-0.766422	0.00409414	0.567785	0.07478700000000001
0.3	-5.01014	283.347	-30.3841	-0.200089	0	-0.376902	0.0348712	-1.97213	0.211478	2.33705	312.565	41.1712	-0.20708	0	-0.766221	0.00439447	0.587731	0.07741629999999999
0.31	-4.74721	286.76	-30.9566	-0.200568	0	-0.376712	0.0324001	-1.95716	0.211281	2.40336	308.547	40.6239	-0.207132	0	-0.765997	0.00476644	0.611922	0.0805669
0.32	-4.42758	290.405	-31.5932	-0.201101	0	-0.376505	0.0295636	-1.93908	0.210953	2.48204	304.367	40.039	-0.207192	0	-0.765752	0.00522182	0.64034	0.0842357
0.33	-4.05313	294.243	-32.2865	-0.201686	0	-0.376287	0.0264167	-1.91776	0.210431	2.57414	300.093	39.4288	-0.207265	0	-0.76549	0.00577091	0.672772	0.0883946
0.34	-3.62953	298.229	-33.0262	-0.20232	0	-0.37606	0.0230406	-1.89319	0.209653	2.67976	295.793	38.8058	-0.207356	0	-0.765213	0.00642231	0.708897	0.0930019
0.35	-3.16574	302.315	-33.8003	-0.202996	0	-0.37583	0.019535	-1.86551	0.208574	2.79821	291.532	38.1822	-0.207469	0	-0.764924	0.00718206	0.748264	0.098001
0.36	-2.67293	306.45	-34.5958	-0.203706	0	-0.375599	0.0160058	-1.83505	0.207163	2.92793	287.368	37.5691	-0.207606	0	-0.764626	0.008051050000000001	0.790188	0.103305
0.37	-2.16342	310.588	-35.3984	-0.20444	0	-0.375375	0.0125533	-1.8022	0.2054	3.06659	283.353	36.9756	-0.207769	0	-0.764321	0.00902507	0.833917	0.10882
0.38	-1.64988	314.684	-36.1937	-0.205186	0	-0.375158	0.009266720000000001	-1.76745	0.203286	3.21095	279.526	36.4091	-0.20796	0	-0.76401	0.0100937	0.878697	0.114453
0.39	-1.14471	318.695	-36.9676	-0.205934	0	-0.374957	0.006219	-1.7314	0.200837	3.35725	275.916	35.8744	-0.208176	0	-0.763698	0.0112391	0.92369	0.120098
0.4	-0.659986	322.586	-37.7071	-0.206673	0	-0.374771	0.00346724	-1.69471	0.198095	3.50154	272.538	35.3735	-0.208413	0	-0.763385	0.0124365	0.967977	0.125637
0.41	-0.206928	326.328	-38.4018	-0.207393	0	-0.374607	0.00105144	-1.65814	0.195127	3.63983	269.396	34.9055	-0.208667	0	-0.763074	0.0136547	1.01063	0.130947
0.42	0.204241	329.9	-39.044	-0.208085	0	-0.374466	-0.00100448	-1.62249	0.192023	3.76829	266.483	34.4674	-0.20893	0	-0.7627660000000001	0.0148597	1.05084	0.135917
